Hanif_Shallow_7_5_grf.mot
version=1
nRows=48
nColumns=19
inDegrees=yes
endheader
time	right_ground_force_vx	right_ground_force_vy	right_ground_force_vz	right_ground_force_px	right_ground_force_py	right_ground_force_pz	right_ground_torque_x	right_ground_torque_y	right_ground_torque_z	left_ground_force_vx	left_ground_force_vy	left_ground_force_vz	left_ground_force_px	left_ground_force_py	left_ground_force_pz	left_ground_torque_x	left_ground_torque_y	left_ground_torque_z
4.000000	-3.004520	269.658000	71.856700	0.212084	0.000000	-1.426340	-21.511700	1.758070	4.022200	-2.215320	297.828000	-77.690100	0.212951	0.000000	-0.979460	22.806000	-3.387680	5.047650
4.005000	-2.129530	267.538000	71.096500	0.211529	0.000000	-1.426580	-21.271400	1.861600	3.841990	-2.346190	297.187000	-78.210300	0.213342	0.000000	-0.979636	22.811600	-3.400930	5.182010
4.010000	-2.307210	266.380000	71.195300	0.211784	0.000000	-1.426160	-21.291400	1.854490	3.908070	-2.963340	296.911000	-78.214700	0.213444	0.000000	-0.979896	22.877100	-3.293850	5.196240
4.015000	-2.039020	267.130000	71.780800	0.211104	0.000000	-1.425690	-21.475100	1.975440	3.755300	-3.457250	295.215000	-78.312800	0.213627	0.000000	-0.979771	22.719200	-3.369460	5.270160
4.020000	-2.514600	271.355000	71.811500	0.211056	0.000000	-1.425970	-21.744600	2.037480	3.802530	-3.758560	294.808000	-78.447800	0.213229	0.000000	-0.979546	22.624800	-3.251410	5.117980
4.025000	-3.100170	272.542000	72.028000	0.211495	0.000000	-1.426310	-21.755200	2.077600	3.965930	-4.177670	293.774000	-78.666000	0.213821	0.000000	-0.980515	22.838100	-3.243430	5.306760
4.030000	-3.619640	273.300000	72.764800	0.209989	0.000000	-1.425610	-22.013400	2.128940	3.567950	-4.406930	295.496000	-79.153400	0.213444	0.000000	-0.979289	22.612700	-3.265760	5.222500
4.035000	-3.235760	276.432000	72.826700	0.209890	0.000000	-1.426280	-22.072900	2.183210	3.566760	-5.083480	297.683000	-79.770600	0.214059	0.000000	-0.978841	22.657800	-3.253050	5.460760
4.040000	-3.356950	278.019000	74.099700	0.210580	0.000000	-1.426280	-22.205000	2.293390	3.832940	-4.952620	299.356000	-80.126300	0.214666	0.000000	-0.978603	22.710800	-3.198600	5.661270
4.045000	-2.667560	279.911000	74.998400	0.209812	0.000000	-1.426540	-22.274700	2.371380	3.635930	-5.577370	300.246000	-80.698400	0.215149	0.000000	-0.978767	22.837500	-3.135000	5.833290
4.050000	-2.660550	281.392000	75.714700	0.209220	0.000000	-1.426410	-22.426600	2.399070	3.484710	-6.472680	300.186000	-81.471400	0.214542	0.000000	-0.979399	23.035100	-3.012160	5.638620
4.055000	-2.602760	281.396000	76.181300	0.208454	0.000000	-1.426720	-22.339500	2.438130	3.269260	-6.932860	300.505000	-81.860200	0.215005	0.000000	-0.978504	22.801100	-3.087760	5.827310
4.060000	-2.689670	283.894000	76.647600	0.207757	0.000000	-1.427850	-22.218900	2.565390	3.112070	-7.313200	301.158000	-82.236600	0.214730	0.000000	-0.979120	23.038900	-2.960920	5.727440
4.065000	-2.641430	283.592000	76.616900	0.207787	0.000000	-1.427170	-22.386000	2.611760	3.131270	-8.330260	302.932000	-82.010200	0.214610	0.000000	-0.979392	23.276600	-3.079090	5.755960
4.070000	-2.772280	282.850000	76.455100	0.207124	0.000000	-1.427260	-22.306200	2.717160	2.955590	-8.754010	301.329000	-81.635300	0.213644	0.000000	-0.978636	22.934500	-3.151420	5.446230
4.075000	-3.066760	279.837000	75.998800	0.206957	0.000000	-1.426800	-22.202400	2.738490	2.900120	-9.653600	301.254000	-81.521300	0.213675	0.000000	-0.978931	23.034600	-3.142780	5.470280
4.080000	-3.057990	281.481000	76.013900	0.206336	0.000000	-1.426840	-22.320500	2.857320	2.750410	-10.203400	301.751000	-81.471700	0.213721	0.000000	-0.979422	23.231700	-3.169950	5.508560
4.085000	-2.925370	283.727000	76.466900	0.206142	0.000000	-1.427950	-22.182100	2.988630	2.736200	-10.832600	301.670000	-80.773800	0.213415	0.000000	-0.977976	22.796700	-3.079590	5.378960
4.090000	-2.724810	283.003000	76.367400	0.205967	0.000000	-1.427420	-22.273500	2.941120	2.662970	-11.768200	298.539000	-80.314600	0.212780	0.000000	-0.977920	22.568200	-3.205960	5.191080
4.095000	-2.948110	283.046000	76.330300	0.205651	0.000000	-1.427330	-22.305100	2.947640	2.573360	-12.389000	297.766000	-79.911000	0.212644	0.000000	-0.978314	22.640200	-3.207370	5.147340
4.100000	-2.832980	284.594000	76.395200	0.205682	0.000000	-1.428320	-22.145600	3.068120	2.616120	-12.193200	298.239000	-79.375900	0.212505	0.000000	-0.978542	22.741300	-3.260250	5.106580
4.105000	-2.784490	281.836000	76.374200	0.204855	0.000000	-1.427440	-22.178400	3.089990	2.365420	-12.777100	300.017000	-79.630300	0.212589	0.000000	-0.977934	22.705500	-3.296640	5.172010
4.110000	-2.986350	285.426000	76.374600	0.204817	0.000000	-1.428610	-22.126600	3.120770	2.370100	-13.779700	303.071000	-79.388200	0.212476	0.000000	-0.977934	22.950000	-3.248940	5.162150
4.115000	-3.115390	288.640000	76.128700	0.204413	0.000000	-1.429410	-22.150000	3.355770	2.310450	-14.089500	304.404000	-79.194800	0.213480	0.000000	-0.977874	23.037400	-3.183970	5.483760
4.120000	-3.090030	289.089000	76.409200	0.203721	0.000000	-1.428740	-22.374900	3.321270	2.091920	-14.504600	306.935000	-79.366800	0.213291	0.000000	-0.979058	23.594300	-3.120250	5.444470
4.125000	-1.822020	289.957000	76.585800	0.203148	0.000000	-1.429900	-22.091100	3.524220	1.943820	-14.431100	311.040000	-79.301300	0.213847	0.000000	-0.978981	23.879900	-3.125430	5.663290
4.130000	-0.900692	293.381000	76.630900	0.203891	0.000000	-1.429660	-22.409000	3.670370	2.196190	-15.153800	314.300000	-79.820700	0.213995	0.000000	-0.978432	23.968200	-3.129360	5.767360
4.135000	-0.097305	293.475000	76.658600	0.202417	0.000000	-1.429140	-22.558000	3.958240	1.793460	-15.151900	316.891000	-80.200100	0.213974	0.000000	-0.977951	24.004600	-3.041120	5.768850
4.140000	0.427589	296.731000	76.392600	0.201619	0.000000	-1.429980	-22.552400	4.046960	1.545770	-15.260000	316.731000	-80.155500	0.214096	0.000000	-0.977604	23.886200	-3.060050	5.812990
4.145000	0.449924	295.625000	76.128300	0.201193	0.000000	-1.429400	-22.638400	4.173550	1.442100	-15.645600	315.743000	-80.049800	0.214194	0.000000	-0.977673	23.842900	-3.053460	5.839950
4.150000	0.146046	298.346000	75.250700	0.201848	0.000000	-1.429790	-22.735300	4.251850	1.656020	-15.438400	317.738000	-80.126400	0.213708	0.000000	-0.978331	24.196600	-3.109830	5.710010
4.155000	0.391131	297.822000	74.686000	0.200831	0.000000	-1.429790	-22.690400	4.421030	1.364140	-16.117900	317.752000	-80.260900	0.214200	0.000000	-0.977658	23.999100	-3.104760	5.888230
4.160000	0.327210	300.326000	74.196900	0.201298	0.000000	-1.429800	-22.879900	4.545300	1.530440	-16.623000	318.892000	-80.223400	0.213934	0.000000	-0.977539	24.051900	-3.049580	5.803410
4.165000	0.479744	297.937000	73.339500	0.200053	0.000000	-1.430110	-22.601700	4.683920	1.160910	-16.410400	320.539000	-80.633900	0.214088	0.000000	-0.976670	23.893000	-3.103150	5.886230
4.170000	-0.045741	299.062000	72.878300	0.199586	0.000000	-1.430030	-22.719800	4.885170	1.060280	-16.122900	323.488000	-80.876700	0.213786	0.000000	-0.977227	24.285000	-3.173330	5.830860
4.175000	0.432824	299.490000	72.664900	0.199453	0.000000	-1.429570	-22.881900	4.929530	1.014460	-15.696000	323.863000	-80.931800	0.213009	0.000000	-0.977677	24.452900	-3.301670	5.594080
4.180000	-0.036279	304.497000	72.857100	0.199227	0.000000	-1.431810	-22.589700	5.087340	0.968925	-15.725700	323.951000	-80.358500	0.213180	0.000000	-0.977908	24.542000	-3.437940	5.677360
4.185000	0.641216	303.722000	73.330200	0.198793	0.000000	-1.431440	-22.633900	5.210930	0.858518	-15.498400	324.838000	-80.920100	0.212065	0.000000	-0.977715	24.534700	-3.410180	5.300420
4.190000	0.491390	306.718000	74.066600	0.197605	0.000000	-1.431200	-22.935000	5.304270	0.494709	-15.153700	325.830000	-81.248400	0.211871	0.000000	-0.977701	24.603800	-3.580700	5.283710
4.195000	1.705910	307.570000	74.383600	0.196652	0.000000	-1.432210	-22.668200	5.490800	0.207396	-14.595300	328.461000	-80.964700	0.211868	0.000000	-0.977444	24.707500	-3.702420	5.315400
4.200000	2.242610	309.928000	74.532700	0.196703	0.000000	-1.432190	-22.839200	5.652360	0.238426	-13.992100	329.876000	-80.706100	0.211388	0.000000	-0.978323	25.095400	-3.874560	5.187350
4.205000	3.189240	311.488000	75.129700	0.195335	0.000000	-1.431900	-23.028500	5.785850	-0.199219	-13.874600	331.858000	-81.033500	0.210193	0.000000	-0.978217	25.204300	-3.939250	4.800870
4.210000	3.453540	312.984000	75.198600	0.194989	0.000000	-1.432330	-22.999600	5.943270	-0.292010	-14.094000	334.113000	-81.534000	0.210325	0.000000	-0.977816	25.243700	-3.951310	4.876670
4.215000	3.811360	315.633000	75.034500	0.194639	0.000000	-1.433270	-22.888800	6.205010	-0.378466	-13.329000	334.850000	-81.599300	0.210304	0.000000	-0.978468	25.504400	-4.030880	4.882520
4.220000	4.212800	317.095000	74.841100	0.194474	0.000000	-1.432360	-23.276500	6.379750	-0.417386	-13.085400	338.710000	-81.452900	0.210147	0.000000	-0.977879	25.588700	-4.058460	4.847170
4.225000	4.451210	317.718000	75.152600	0.193624	0.000000	-1.433550	-22.935200	6.659410	-0.640218	-12.772000	342.169000	-81.833800	0.209707	0.000000	-0.977640	25.761100	-4.187200	4.740850
4.230000	4.259910	321.904000	74.583600	0.193768	0.000000	-1.432800	-23.486000	6.726960	-0.627326	-12.241900	341.440000	-82.353500	0.209019	0.000000	-0.978620	26.034700	-4.331900	4.526620
4.235000	4.313400	323.925000	74.428100	0.192750	0.000000	-1.433770	-23.316700	6.866250	-0.966202	-11.549100	343.680000	-82.339300	0.208790	0.000000	-0.977403	25.771600	-4.387940	4.451310
